<svg width="52" height="52" viewBox="0 0 52 52" fill="none" xmlns="http://www.w3.org/2000/svg">
<path d="M26 0C11.6546 0 0 11.6732 0 26.0416C0 39.0851 9.60527 49.8796 22.1152 51.7619L23.4725 51.9676V31.4469H17.3303V27.2808H23.4725V21.7484C23.4725 18.3415 24.2887 16.0978 25.6399 14.69C26.9911 13.2823 28.9876 12.5723 31.766 12.5723C33.9876 12.5723 34.8518 12.7071 35.6738 12.8081V16.2182H32.7816C31.1406 16.2182 29.7942 17.1353 29.0953 18.3567C28.3965 19.5782 28.179 21.0367 28.179 22.5229V27.2785H35.4153L34.7713 31.4446H28.179V52L29.5201 51.8174C42.2079 50.0938 52 39.2126 52 26.0416C52 11.6732 40.3454 0 26 0ZM26 2.36742C39.068 2.36742 49.6364 12.9527 49.6364 26.0416C49.6364 37.5589 41.4059 47.0309 30.5426 49.1633V33.812H36.7979L38.1713 24.9111H30.5426V22.5229C30.5426 21.2948 30.7669 20.1944 31.1451 19.5335C31.5232 18.8726 31.8877 18.5856 32.7816 18.5856H38.0375V10.6649L37.0126 10.5262C36.3038 10.4302 34.6854 10.2049 31.766 10.2049C28.5714 10.2049 25.8293 11.0765 23.9364 13.0486C22.0436 15.0206 21.1088 17.957 21.1088 21.7484V24.9134H14.9666V33.8143H21.1088V49.0893C10.4201 46.8214 2.36364 37.4342 2.36364 26.0416C2.36364 12.9527 12.932 2.36742 26 2.36742Z" fill="#0A1319"/>
</svg>
