<svg width="60" height="60" viewBox="0 0 60 60" fill="none" xmlns="http://www.w3.org/2000/svg">
<path d="M30.003 21C27.6161 21 25.3269 21.9482 23.639 23.636C21.9512 25.3239 21.003 27.6131 21.003 30C21.003 32.3869 21.9512 34.6761 23.639 36.364C25.3269 38.0518 27.6161 39 30.003 39C32.3899 39 34.6791 38.0518 36.367 36.364C38.0548 34.6761 39.003 32.3869 39.003 30C39.003 27.6131 38.0548 25.3239 36.367 23.636C34.6791 21.9482 32.3899 21 30.003 21ZM30.003 15C33.9812 15 37.7966 16.5804 40.6096 19.3934C43.4226 22.2064 45.003 26.0218 45.003 30C45.003 33.9782 43.4226 37.7936 40.6096 40.6066C37.7966 43.4196 33.9812 45 30.003 45C26.0248 45 22.2094 43.4196 19.3964 40.6066C16.5834 37.7936 15.003 33.9782 15.003 30C15.003 26.0218 16.5834 22.2064 19.3964 19.3934C22.2094 16.5804 26.0248 15 30.003 15ZM49.503 14.25C49.503 15.2446 49.1079 16.1984 48.4047 16.9017C47.7014 17.6049 46.7476 18 45.753 18C44.7584 18 43.8046 17.6049 43.1014 16.9017C42.3981 16.1984 42.003 15.2446 42.003 14.25C42.003 13.2554 42.3981 12.3016 43.1014 11.5983C43.8046 10.8951 44.7584 10.5 45.753 10.5C46.7476 10.5 47.7014 10.8951 48.4047 11.5983C49.1079 12.3016 49.503 13.2554 49.503 14.25ZM30.003 6C22.581 6 21.369 6.021 17.916 6.174C15.564 6.285 13.986 6.6 12.522 7.17C11.2975 7.62111 10.1902 8.3419 9.282 9.279C8.34382 10.1869 7.62199 11.2942 7.17 12.519C6.6 13.989 6.285 15.564 6.177 17.913C6.021 21.225 6 22.383 6 30C6 37.425 6.021 38.634 6.174 42.087C6.285 44.436 6.6 46.017 7.167 47.478C7.677 48.783 8.277 49.722 9.273 50.718C10.284 51.726 11.223 52.329 12.513 52.827C13.995 53.4 15.573 53.718 17.913 53.826C21.225 53.982 22.383 54 30 54C37.425 54 38.634 53.979 42.087 53.826C44.433 53.715 46.011 53.4 47.478 52.833C48.7025 52.3819 49.8098 51.6611 50.718 50.724C51.729 49.716 52.332 48.777 52.83 47.484C53.4 46.008 53.718 44.43 53.826 42.084C53.982 38.775 54 37.614 54 30C54 22.578 53.979 21.366 53.826 17.913C53.715 15.567 53.397 13.983 52.83 12.519C52.3789 11.2945 51.6581 10.1872 50.721 9.279C49.8131 8.34082 48.7058 7.61899 47.481 7.167C46.011 6.597 44.433 6.282 42.087 6.174C38.778 6.018 37.62 6 30 6M30 0C38.151 0 39.168 0.0299998 42.369 0.18C45.561 0.33 47.739 0.831 49.65 1.575C51.63 2.337 53.298 3.369 54.966 5.034C56.4921 6.5332 57.6726 8.34742 58.425 10.35C59.166 12.261 59.67 14.439 59.82 17.634C59.961 20.832 60 21.849 60 30C60 38.151 59.97 39.168 59.82 42.366C59.67 45.564 59.166 47.736 58.425 49.65C57.6726 51.6526 56.4921 53.4668 54.966 54.966C53.4668 56.4921 51.6526 57.6726 49.65 58.425C47.739 59.166 45.561 59.67 42.369 59.82C39.168 59.961 38.151 60 30 60C21.849 60 20.832 59.97 17.631 59.82C14.439 59.67 12.264 59.166 10.35 58.425C8.34742 57.6726 6.5332 56.4921 5.034 54.966C3.50792 53.4668 2.32745 51.6526 1.575 49.65C0.831 47.739 0.33 45.561 0.18 42.366C0.0359998 39.168 0 38.151 0 30C0 21.849 0.0299998 20.832 0.18 17.634C0.33 14.436 0.831 12.264 1.575 10.35C2.32745 8.34742 3.50792 6.5332 5.034 5.034C6.5332 3.50792 8.34742 2.32745 10.35 1.575C12.261 0.831 14.436 0.33 17.631 0.18C20.835 0.0389998 21.852 0 30.003 0" fill="black"/>
</svg>
