<svg width="86" height="99" viewBox="0 0 86 99" fill="none" xmlns="http://www.w3.org/2000/svg">
<g clip-path="url(#clip0_4_39)">
<path d="M21.5934 25.4554L21.7599 0.000163761L43.4674 12.583L21.5934 25.4554Z" fill="#277EB8"/>
<path d="M42.7697 37.7851L42.9363 12.3299L64.6438 24.9127L42.7697 37.7851Z" fill="#277EB8"/>
<path d="M64.1261 50.1148L64.2926 24.6596L86.0001 37.2424L64.1261 50.1148Z" fill="#277EB8"/>
<path d="M63.8414 49.8982L85.8258 37.3154V62.481L63.8414 49.8982Z" fill="#66A7D2"/>
<path d="M63.6894 49.704L85.9988 61.8001L64.7431 75.1379L63.6894 49.704Z" fill="#277EB8"/>
<path d="M64.6977 74.7316L42.6032 62.2444L64.0887 49.2832L64.6977 74.7316Z" fill="#66A7D2"/>
<path d="M64.5866 73.5447L64.42 98.9999L42.7125 86.4171L64.5866 73.5447Z" fill="#78B07E"/>
<path d="M43.4102 61.3958L43.2437 86.851L21.5362 74.2682L43.4102 61.3958Z" fill="#78B07E"/>
<path d="M22.234 49.2468L22.0675 74.702L0.359982 62.1192L22.234 49.2468Z" fill="#78B07E"/>
<path d="M21.5934 74.8297L21.7599 49.3745L43.4674 61.9573L21.5934 74.8297Z" fill="#9FC6A3"/>
<path d="M42.7697 86.9787L42.9363 61.5235L64.6438 74.1063L42.7697 86.9787Z" fill="#9FC6A3"/>
<path d="M22.234 24.794L22.0675 50.2492L0.359982 37.6664L22.234 24.794Z" fill="#78B07E"/>
<path d="M43.1769 12.211L43.0104 37.6662L21.3029 25.0834L43.1769 12.211Z" fill="#66A7D2"/>
<path d="M64.44 24.794L64.2735 50.2492L42.566 37.6664L64.44 24.794Z" fill="#66A7D2"/>
<path d="M21.1612 50.3937L21.3277 24.9385L43.0352 37.5213L21.1612 50.3937Z" fill="#9FC6A3"/>
<path d="M22.0703 50.0777L-1.90735e-06 62.6774V37.478L22.0703 50.0777Z" fill="#9FC6A3"/>
</g>
<defs>
<clipPath id="clip0_4_39">
<rect width="86" height="99" fill="white"/>
</clipPath>
</defs>
</svg>
