<svg width="52" height="47" viewBox="0 0 52 47" fill="none" xmlns="http://www.w3.org/2000/svg">
<path d="M51.0181 0.646113C50.131 -0.10119 48.7379 -0.208115 47.2974 0.366462H47.295C45.78 0.970414 4.40997 18.6002 2.72584 19.3204C2.41953 19.4262 -0.255684 20.4179 0.0198794 22.6269C0.265876 24.6185 2.41598 25.4434 2.67853 25.5386L13.1961 29.1164C13.8939 31.4242 16.4662 39.9382 17.035 41.7571C17.3898 42.891 17.9682 44.3809 18.9817 44.6876C19.8711 45.0283 20.7557 44.717 21.3282 44.2705L27.7584 38.3449L38.1387 46.3878L38.3859 46.5347C39.0908 46.8449 39.7661 47 40.4106 47C40.9085 47 41.3863 46.9072 41.8428 46.7215C43.3981 46.087 44.0202 44.6147 44.0852 44.4479L51.8388 4.4073C52.3119 2.26879 51.6543 1.18074 51.0181 0.646113ZM22.4718 30.5476L18.9238 39.9476L15.3757 28.1976L42.5773 8.22254L22.4718 30.5476Z" fill="#277EB8"/>
</svg>
