<svg width="52" height="47" viewBox="0 0 52 47" fill="none" xmlns="http://www.w3.org/2000/svg">
<path d="M48.1509 0.00437795C47.4789 0.0358309 46.8459 0.232411 46.2833 0.452582H46.2755C45.7051 0.680615 42.9935 1.82865 38.8754 3.56642C34.7573 5.31206 29.4124 7.57667 24.1065 9.82555C13.5104 14.3155 3.09399 18.7346 3.09399 18.7346L3.21901 18.6874C3.21901 18.6874 2.5001 18.9233 1.74994 19.4423C1.36704 19.6939 0.945067 20.0399 0.577799 20.5825C0.210529 21.125 -0.086413 21.9585 0.0229875 22.8156C0.202716 24.2703 1.14043 25.1431 1.81245 25.6228C2.49229 26.1103 3.14087 26.3383 3.14087 26.3383H3.1565L12.9243 29.6488C13.3619 31.0641 15.9015 39.4621 16.511 41.3964C16.8705 42.5523 17.2221 43.2757 17.6597 43.8262C17.8707 44.1092 18.1208 44.3451 18.4177 44.5338C18.5349 44.6046 18.66 44.6597 18.785 44.7068C18.8241 44.7304 18.8631 44.7383 18.91 44.7462L18.8084 44.7226C18.8397 44.7304 18.8631 44.754 18.8866 44.7619C18.9647 44.7855 19.0194 44.7933 19.121 44.8091C20.6682 45.2809 21.9107 44.3137 21.9107 44.3137L21.981 44.2586L27.7479 38.9745L37.4142 46.4368L37.6329 46.5311C39.649 47.4197 41.6885 46.9243 42.7669 46.0515C43.8531 45.1708 44.2751 44.0463 44.2751 44.0463L44.3454 43.8655L51.8158 5.35924C52.0268 4.40779 52.0815 3.51924 51.8471 2.65429C51.6126 1.78933 51.0109 0.979419 50.2842 0.54694C49.5497 0.106599 48.8229 -0.027075 48.1509 0.00437795ZM47.9478 4.13257C47.9399 4.25838 47.9634 4.24266 47.9087 4.48642V4.51001L40.5086 42.6152C40.4773 42.6703 40.4226 42.7882 40.2742 42.9062C40.1179 43.032 39.9929 43.1106 39.3443 42.8511L27.5213 33.7298L20.3791 40.2798L21.8794 30.6395C21.8794 30.6395 40.3992 13.2696 41.1962 12.5226C41.9933 11.7756 41.7276 11.6184 41.7276 11.6184C41.7823 10.7062 40.5242 11.351 40.5242 11.351L16.1672 26.5349L16.1594 26.4956L4.48492 22.5404V22.5325C4.47711 22.5325 4.46148 22.5247 4.45366 22.5247C4.46148 22.5247 4.51618 22.5011 4.51618 22.5011L4.57869 22.4696L4.64121 22.446C4.64121 22.446 15.0654 18.0269 25.6615 13.537C30.9674 11.2881 36.3123 9.0235 40.4226 7.27787C44.5329 5.54009 47.5727 4.26625 47.7446 4.19548C47.9087 4.13257 47.8305 4.13257 47.9478 4.13257Z" fill="#0A1319"/>
</svg>
