<svg width="881" height="710" viewBox="0 0 881 710" fill="none" xmlns="http://www.w3.org/2000/svg">
<path d="M575.607 411.689C575.707 475.347 554.602 537.226 515.622 587.557H59.9852C21.0062 537.226 -0.0992703 475.347 0.000351059 411.689C0.000351059 252.748 128.859 123.911 287.811 123.911C446.762 123.911 575.607 252.748 575.607 411.689Z" fill="white"/>
<path opacity="0.1" d="M880.999 440.686C881.153 538.169 848.849 632.926 789.189 710H91.8108C32.1512 632.926 -0.151939 538.169 0.000537315 440.686C0.000537315 197.294 197.226 0 440.51 0C683.795 0 880.999 197.294 880.999 440.686Z" fill="#88B3CF"/>
<path d="M127.782 541.434L122.44 588.727H316.097L313.11 541.137L127.782 541.434Z" fill="#262626"/>
<path d="M219.556 339.218C188.719 337.766 187.421 311.593 187.421 311.593C187.421 311.593 172.142 312.581 161.984 313.955C145.355 316.204 127.727 321.914 119.727 335.739C113.976 345.68 112.591 347.479 117.823 403.573C121.611 444.189 127.782 541.436 127.782 541.436L313.11 541.138C313.11 541.138 321.357 416.427 322.913 398.143C325.883 363.241 330.57 314.047 320.62 311.591C309.029 308.731 271.191 313.434 258.953 311.591C258.746 311.564 261.55 341.198 219.556 339.218Z" fill="#277EB8"/>
<path d="M553.277 214.949L556.864 206.637C557.41 205.469 557.492 204.137 557.094 202.91C556.696 201.684 555.847 200.654 554.718 200.03C554.125 199.728 553.476 199.55 552.812 199.507C552.147 199.464 551.481 199.557 550.853 199.779C550.226 200.002 549.65 200.351 549.162 200.804C548.674 201.256 548.283 201.804 548.013 202.412" fill="#E98862"/>
<path d="M296.849 464.359C296.751 465.644 296.168 466.844 295.218 467.715C294.268 468.586 293.022 469.063 291.733 469.049L287.611 469.099C287.669 469.14 287.718 469.194 287.751 469.257C287.784 469.32 287.802 469.39 287.802 469.461C287.803 469.548 287.777 469.632 287.726 469.702C288.651 470.193 289.394 470.966 289.847 471.909C290.301 472.852 290.44 473.916 290.245 474.944C290.003 476.076 289.379 477.091 288.478 477.817C287.576 478.543 286.451 478.937 285.293 478.931L250.153 479.311C245.236 479.367 240.414 477.953 236.307 475.249C232.199 472.546 228.993 468.677 227.1 464.139L220.994 449.527L239.695 445.547L240.142 440.886L268.378 428.15C268.985 427.876 269.641 427.728 270.307 427.716C270.972 427.704 271.633 427.828 272.25 428.08C272.866 428.332 273.424 428.707 273.891 429.181C274.358 429.656 274.723 430.221 274.964 430.841C275.389 432.059 275.335 433.393 274.815 434.573C274.294 435.753 273.345 436.691 272.16 437.199L266.121 439.92L289.108 440.074C291.667 440.045 294.821 441.643 294.662 444.506C294.675 445.614 294.312 446.693 293.632 447.568C292.952 448.443 291.995 449.061 290.918 449.321C290.918 449.349 290.924 449.369 290.926 449.398L290.911 449.45L294.853 449.408C295.58 449.4 296.299 449.553 296.959 449.856C297.619 450.16 298.204 450.607 298.67 451.164C299.136 451.721 299.473 452.375 299.656 453.078C299.838 453.781 299.862 454.517 299.726 455.23C299.488 456.362 298.866 457.376 297.966 458.101C297.066 458.826 295.942 459.218 294.786 459.21L293.1 459.234C293.077 459.279 293.049 459.322 293.018 459.362C294.142 459.613 295.141 460.251 295.842 461.164C296.542 462.078 296.899 463.209 296.849 464.359Z" fill="#EEAF96"/>
<g opacity="0.2">
<path d="M268.159 449.291C268.161 449.41 268.21 449.523 268.294 449.606C268.379 449.689 268.493 449.736 268.611 449.736L290.471 449.849C290.591 449.849 290.706 449.802 290.791 449.717C290.875 449.632 290.923 449.517 290.923 449.397C290.923 449.277 290.875 449.162 290.791 449.077C290.706 448.993 290.591 448.945 290.471 448.945L268.611 448.831C268.491 448.831 268.376 448.879 268.291 448.963C268.207 449.048 268.159 449.163 268.159 449.283V449.291Z" fill="#0C0C0C"/>
</g>
<g opacity="0.2">
<path d="M267.842 458.93C267.845 459.049 267.893 459.162 267.978 459.245C268.062 459.328 268.176 459.374 268.295 459.374L292.69 459.502C292.809 459.502 292.925 459.454 293.009 459.369C293.094 459.285 293.142 459.169 293.142 459.05C293.138 458.931 293.089 458.818 293.005 458.734C292.921 458.65 292.808 458.601 292.69 458.597L268.295 458.471C268.175 458.471 268.06 458.518 267.975 458.603C267.89 458.688 267.842 458.803 267.842 458.923V458.93Z" fill="#0C0C0C"/>
</g>
<g opacity="0.2">
<path d="M267.44 469.368C267.442 469.486 267.491 469.599 267.575 469.682C267.66 469.765 267.774 469.812 267.892 469.812L287.351 469.913C287.471 469.913 287.586 469.865 287.671 469.781C287.756 469.696 287.803 469.581 287.803 469.461C287.803 469.341 287.756 469.226 287.671 469.141C287.586 469.056 287.471 469.009 287.351 469.009L267.892 468.907C267.772 468.907 267.657 468.955 267.572 469.04C267.488 469.124 267.44 469.24 267.44 469.359V469.368Z" fill="#0C0C0C"/>
</g>
<path d="M248.337 489.769L101.204 515.977C95.0226 517.617 88.5032 517.477 82.398 515.572C76.2929 513.667 70.8507 510.075 66.6994 505.21C62.5481 500.345 59.8569 494.406 58.9361 488.077C58.0154 481.749 58.9028 475.289 61.4958 469.443L115.078 344.809C122.676 327.685 141.455 319.962 158.577 327.559C166.8 331.206 173.237 337.971 176.472 346.364C179.707 354.758 179.475 364.092 175.828 372.315L144.361 446.9L242.762 433.826L248.337 489.769Z" fill="#277EB8"/>
<path d="M126.56 512.084C126.603 512.085 126.645 512.079 126.685 512.066L248.462 490.204C248.575 490.171 248.671 490.095 248.73 489.993C248.788 489.891 248.804 489.77 248.774 489.656L243.2 431.902C243.17 431.788 243.097 431.689 242.995 431.628C242.894 431.567 242.772 431.548 242.657 431.576L145.175 446.248L176.228 372.51C176.273 372.403 176.276 372.283 176.234 372.175C176.193 372.066 176.112 371.978 176.008 371.927C175.903 371.877 175.783 371.869 175.673 371.904C175.562 371.94 175.47 372.017 175.414 372.119L143.954 446.704C143.918 446.781 143.905 446.866 143.915 446.95C143.925 447.034 143.958 447.114 144.011 447.18C144.065 447.246 144.135 447.296 144.215 447.323C144.296 447.351 144.382 447.356 144.464 447.337L242.435 432.552L247.787 489.453L126.435 511.2C126.33 511.23 126.239 511.297 126.179 511.388C126.119 511.48 126.095 511.59 126.11 511.698C126.126 511.807 126.18 511.906 126.263 511.977C126.345 512.049 126.451 512.088 126.56 512.087V512.084Z" fill="#0C0C0C"/>
<path d="M132.184 448.98C132.216 448.98 132.248 448.976 132.28 448.969L144.459 447.341C144.518 447.329 144.573 447.305 144.622 447.271C144.672 447.238 144.714 447.194 144.746 447.144C144.779 447.094 144.801 447.038 144.812 446.979C144.823 446.92 144.822 446.86 144.809 446.802C144.796 446.743 144.772 446.688 144.738 446.639C144.704 446.59 144.66 446.548 144.61 446.516C144.559 446.484 144.503 446.462 144.444 446.452C144.385 446.442 144.325 446.444 144.266 446.457L132.087 448.085C131.978 448.109 131.883 448.173 131.818 448.263C131.753 448.354 131.724 448.465 131.736 448.575C131.748 448.686 131.8 448.788 131.883 448.863C131.965 448.937 132.073 448.978 132.184 448.979V448.98Z" fill="#0C0C0C"/>
<path d="M324.636 378.117C324.75 378.117 324.86 378.075 324.944 377.997C325.028 377.92 325.08 377.814 325.088 377.7L327.104 351.616C327.113 351.496 327.074 351.378 326.996 351.286C326.918 351.195 326.806 351.139 326.686 351.129C326.566 351.12 326.448 351.159 326.356 351.237C326.265 351.315 326.208 351.427 326.199 351.547L324.184 377.63C324.175 377.75 324.214 377.868 324.292 377.959C324.37 378.05 324.481 378.106 324.6 378.115C324.612 378.117 324.624 378.117 324.636 378.117Z" fill="#0C0C0C"/>
<path d="M54.3799 589.631H521.228C521.468 589.631 521.698 589.536 521.867 589.366C522.037 589.197 522.132 588.967 522.132 588.727C522.132 588.487 522.037 588.257 521.867 588.087C521.698 587.918 521.468 587.822 521.228 587.822H54.3799C54.14 587.822 53.91 587.918 53.7403 588.087C53.5707 588.257 53.4754 588.487 53.4754 588.727C53.4754 588.967 53.5707 589.197 53.7403 589.366C53.91 589.536 54.14 589.631 54.3799 589.631Z" fill="#292A2E"/>
<rect x="443" y="94" width="403" height="79" rx="12" fill="#E8F0F6"/>
<path d="M461.003 138.832C461 134.734 461.015 131.147 461 127.5C465.095 127.503 468.691 127.515 472.332 127.503C472.337 128.589 472.338 129.421 472.342 130.477C470.197 130.483 467.948 130.477 466.085 130.478L472.754 137.147C473.083 137.476 473.082 138.076 472.751 138.407L471.908 139.25C471.576 139.582 470.976 139.583 470.647 139.255L463.978 132.586C463.981 134.669 463.975 136.753 463.984 138.836C462.98 138.83 461.887 138.836 461.003 138.832Z" fill="#277EB8"/>
<g filter="url(#filter0_f_667_2595)">
<path d="M769.209 128.296C768.977 128.296 768.793 128.224 768.657 128.08C768.521 127.936 768.453 127.736 768.453 127.48C768.453 127.232 768.521 127.032 768.657 126.88C768.785 126.736 768.969 126.664 769.209 126.664C769.449 126.664 769.633 126.736 769.761 126.88C769.897 127.032 769.965 127.232 769.965 127.48C769.965 127.728 769.897 127.924 769.761 128.068C769.625 128.22 769.441 128.296 769.209 128.296ZM767.288 126.5C766.568 126.5 765.996 126.288 765.572 125.864C765.156 125.44 764.948 124.856 764.948 124.112C764.948 123.92 764.96 123.716 764.984 123.5C765.016 123.276 765.06 123.06 765.116 122.852C765.172 122.636 765.236 122.448 765.308 122.288H766.676C766.62 122.56 766.576 122.832 766.544 123.104C766.512 123.376 766.496 123.644 766.496 123.908C766.496 124.3 766.6 124.62 766.808 124.868C767.016 125.108 767.288 125.228 767.624 125.228H771.668V120.596H773.192V126.5H767.288ZM778.495 125.228C778.527 125.228 778.543 125.244 778.543 125.276V126.44C778.543 126.48 778.523 126.5 778.483 126.5H775.411V117.38H776.959V125.228H778.495ZM786.698 126.5C786.346 126.5 786.014 126.432 785.702 126.296C785.398 126.152 785.094 125.928 784.79 125.624C784.582 125.904 784.318 126.12 783.998 126.272C783.686 126.424 783.31 126.5 782.87 126.5H778.358C778.318 126.5 778.298 126.48 778.298 126.44V125.276C778.298 125.244 778.318 125.228 778.358 125.228H779.93V121.532H781.466V125.228H782.57C782.97 125.228 783.266 125.112 783.458 124.88C783.65 124.648 783.746 124.3 783.746 123.836V121.532H785.282V123.956C785.282 124.036 785.278 124.12 785.27 124.208C785.27 124.288 785.266 124.368 785.258 124.448C785.458 124.736 785.658 124.94 785.858 125.06C786.066 125.172 786.338 125.228 786.674 125.228H787.406V120.596H788.942V125.228H790.514C790.554 125.228 790.574 125.244 790.574 125.276V126.44C790.574 126.48 790.554 126.5 790.514 126.5H786.698ZM790.393 126.5C790.353 126.5 790.333 126.48 790.333 126.44V125.276C790.333 125.244 790.353 125.228 790.393 125.228H795.337C795.233 125.124 795.133 124.988 795.037 124.82C794.949 124.652 794.869 124.444 794.797 124.196C794.733 123.948 794.669 123.668 794.605 123.356C794.549 123.052 794.477 122.8 794.389 122.6C794.309 122.4 794.213 122.236 794.101 122.108C793.997 121.98 793.865 121.888 793.705 121.832C793.545 121.776 793.357 121.748 793.141 121.748C792.861 121.748 792.589 121.788 792.325 121.868C792.061 121.94 791.785 122.056 791.497 122.216L790.993 121.064C791.345 120.856 791.717 120.708 792.109 120.62C792.501 120.524 792.913 120.476 793.345 120.476C793.593 120.476 793.817 120.492 794.017 120.524C794.225 120.556 794.413 120.608 794.581 120.68C794.845 120.784 795.073 120.932 795.265 121.124C795.457 121.308 795.617 121.544 795.745 121.832C795.873 122.112 795.969 122.456 796.033 122.864C796.105 123.264 796.181 123.62 796.261 123.932C796.349 124.244 796.445 124.508 796.549 124.724C796.653 124.94 796.765 125.108 796.885 125.228H797.677C797.717 125.228 797.737 125.244 797.737 125.276V126.44C797.737 126.48 797.717 126.5 797.677 126.5H790.393ZM797.553 126.5C797.513 126.5 797.493 126.48 797.493 126.44V125.276C797.493 125.244 797.513 125.228 797.553 125.228H799.077V117.38H800.625V126.5H797.553ZM803.02 117.38H804.568V126.5H803.02V117.38ZM813.088 126.5C812.752 126.5 812.512 126.572 812.368 126.716C812.224 126.86 812.152 127.092 812.152 127.412V130.34H810.628V126.956C810.628 126.612 810.688 126.312 810.808 126.056C810.928 125.792 811.1 125.592 811.324 125.456C811.556 125.312 811.832 125.24 812.152 125.24H812.188C812.068 124.944 811.976 124.644 811.912 124.34C811.856 124.036 811.828 123.736 811.828 123.44C811.828 123.088 811.88 122.724 811.984 122.348C812.088 121.964 812.22 121.636 812.38 121.364C812.716 121.14 813.092 120.964 813.508 120.836C813.932 120.708 814.328 120.644 814.696 120.644C814.96 120.644 815.212 120.672 815.452 120.728C815.692 120.784 815.916 120.868 816.124 120.98C816.548 121.212 816.876 121.54 817.108 121.964C817.348 122.388 817.468 122.872 817.468 123.416C817.468 123.64 817.448 123.86 817.408 124.076C817.368 124.284 817.308 124.492 817.228 124.7C817.38 124.892 817.556 125.028 817.756 125.108C817.956 125.188 818.208 125.228 818.512 125.228H818.572C818.612 125.228 818.632 125.244 818.632 125.276V126.44C818.632 126.48 818.612 126.5 818.572 126.5H818.512C818.088 126.5 817.72 126.44 817.408 126.32C817.104 126.2 816.812 125.996 816.532 125.708C816.244 125.972 815.912 126.172 815.536 126.308C815.16 126.436 814.772 126.5 814.372 126.5H813.088ZM813.292 123.536C813.292 123.792 813.316 124.06 813.364 124.34C813.42 124.62 813.508 124.916 813.628 125.228H814.216C814.552 125.228 814.844 125.152 815.092 125C815.348 124.848 815.548 124.636 815.692 124.364C815.836 124.084 815.908 123.764 815.908 123.404C815.908 122.948 815.792 122.584 815.56 122.312C815.328 122.04 815.032 121.904 814.672 121.904C814.472 121.904 814.268 121.94 814.06 122.012C813.86 122.076 813.66 122.172 813.46 122.3C813.396 122.492 813.352 122.692 813.328 122.9C813.304 123.1 813.292 123.312 813.292 123.536ZM826.788 126.5C826.436 126.5 826.104 126.432 825.792 126.296C825.488 126.152 825.184 125.928 824.88 125.624C824.672 125.904 824.408 126.12 824.088 126.272C823.776 126.424 823.4 126.5 822.96 126.5H818.448C818.408 126.5 818.388 126.48 818.388 126.44V125.276C818.388 125.244 818.408 125.228 818.448 125.228H820.02V121.532H821.556V125.228H822.66C823.06 125.228 823.356 125.112 823.548 124.88C823.74 124.648 823.836 124.3 823.836 123.836V121.532H825.372V123.956C825.372 124.036 825.368 124.12 825.36 124.208C825.36 124.288 825.356 124.368 825.348 124.448C825.548 124.736 825.748 124.94 825.948 125.06C826.156 125.172 826.428 125.228 826.764 125.228H827.496V120.596H829.032V126.5H826.788ZM831.251 117.38H832.799V126.5H831.251V117.38Z" fill="#363636"/>
</g>
<path d="M718.245 140.38L718.005 142.588L720.237 141.964L720.417 143.32L718.353 143.476L719.697 145.264L718.473 145.924L717.525 144.004L716.673 145.912L715.401 145.264L716.733 143.476L714.681 143.308L714.897 141.964L717.081 142.588L716.829 140.38H718.245ZM724.808 140.38L724.568 142.588L726.8 141.964L726.98 143.32L724.916 143.476L726.26 145.264L725.036 145.924L724.088 144.004L723.236 145.912L721.964 145.264L723.296 143.476L721.244 143.308L721.46 141.964L723.644 142.588L723.392 140.38H724.808ZM731.37 140.38L731.13 142.588L733.362 141.964L733.542 143.32L731.478 143.476L732.822 145.264L731.598 145.924L730.65 144.004L729.798 145.912L728.526 145.264L729.858 143.476L727.806 143.308L728.022 141.964L730.206 142.588L729.954 140.38H731.37ZM737.933 140.38L737.693 142.588L739.925 141.964L740.105 143.32L738.041 143.476L739.385 145.264L738.161 145.924L737.213 144.004L736.361 145.912L735.089 145.264L736.421 143.476L734.369 143.308L734.585 141.964L736.769 142.588L736.517 140.38H737.933ZM748.574 140.38L748.334 142.588L750.566 141.964L750.746 143.32L748.682 143.476L750.026 145.264L748.802 145.924L747.854 144.004L747.002 145.912L745.73 145.264L747.062 143.476L745.01 143.308L745.226 141.964L747.41 142.588L747.158 140.38H748.574ZM755.136 140.38L754.896 142.588L757.128 141.964L757.308 143.32L755.244 143.476L756.588 145.264L755.364 145.924L754.416 144.004L753.564 145.912L752.292 145.264L753.624 143.476L751.572 143.308L751.788 141.964L753.972 142.588L753.72 140.38H755.136ZM761.699 140.38L761.459 142.588L763.691 141.964L763.871 143.32L761.807 143.476L763.151 145.264L761.927 145.924L760.979 144.004L760.127 145.912L758.855 145.264L760.187 143.476L758.135 143.308L758.351 141.964L760.535 142.588L760.283 140.38H761.699ZM768.261 140.38L768.021 142.588L770.253 141.964L770.433 143.32L768.369 143.476L769.713 145.264L768.489 145.924L767.541 144.004L766.689 145.912L765.417 145.264L766.749 143.476L764.697 143.308L764.913 141.964L767.097 142.588L766.845 140.38H768.261ZM778.902 140.38L778.662 142.588L780.894 141.964L781.074 143.32L779.01 143.476L780.354 145.264L779.13 145.924L778.182 144.004L777.33 145.912L776.058 145.264L777.39 143.476L775.338 143.308L775.554 141.964L777.738 142.588L777.486 140.38H778.902ZM785.464 140.38L785.224 142.588L787.456 141.964L787.636 143.32L785.572 143.476L786.916 145.264L785.692 145.924L784.744 144.004L783.892 145.912L782.62 145.264L783.952 143.476L781.9 143.308L782.116 141.964L784.3 142.588L784.048 140.38H785.464ZM792.027 140.38L791.787 142.588L794.019 141.964L794.199 143.32L792.135 143.476L793.479 145.264L792.255 145.924L791.307 144.004L790.455 145.912L789.183 145.264L790.515 143.476L788.463 143.308L788.679 141.964L790.863 142.588L790.611 140.38H792.027ZM798.589 140.38L798.349 142.588L800.581 141.964L800.761 143.32L798.697 143.476L800.041 145.264L798.817 145.924L797.869 144.004L797.017 145.912L795.745 145.264L797.077 143.476L795.025 143.308L795.241 141.964L797.425 142.588L797.173 140.38H798.589ZM811.654 149.5H805.774V148.372L807.946 146.164C808.386 145.724 808.742 145.348 809.014 145.036C809.286 144.724 809.486 144.432 809.614 144.16C809.75 143.888 809.818 143.596 809.818 143.284C809.818 142.892 809.706 142.6 809.482 142.408C809.266 142.216 808.978 142.12 808.618 142.12C808.258 142.12 807.922 142.196 807.61 142.348C807.298 142.492 806.97 142.7 806.626 142.972L805.786 141.964C806.026 141.756 806.282 141.568 806.554 141.4C806.826 141.224 807.134 141.084 807.478 140.98C807.83 140.868 808.238 140.812 808.702 140.812C809.254 140.812 809.726 140.912 810.118 141.112C810.518 141.304 810.826 141.576 811.042 141.928C811.266 142.272 811.378 142.668 811.378 143.116C811.378 143.58 811.282 144.008 811.09 144.4C810.906 144.784 810.638 145.168 810.286 145.552C809.942 145.936 809.53 146.356 809.05 146.812L807.718 148.096V148.168H811.654V149.5ZM818.521 149.5H812.641V148.372L814.813 146.164C815.253 145.724 815.609 145.348 815.881 145.036C816.153 144.724 816.353 144.432 816.481 144.16C816.617 143.888 816.685 143.596 816.685 143.284C816.685 142.892 816.573 142.6 816.349 142.408C816.133 142.216 815.845 142.12 815.485 142.12C815.125 142.12 814.789 142.196 814.477 142.348C814.165 142.492 813.837 142.7 813.493 142.972L812.653 141.964C812.893 141.756 813.149 141.568 813.421 141.4C813.693 141.224 814.001 141.084 814.345 140.98C814.697 140.868 815.105 140.812 815.569 140.812C816.121 140.812 816.593 140.912 816.985 141.112C817.385 141.304 817.693 141.576 817.909 141.928C818.133 142.272 818.245 142.668 818.245 143.116C818.245 143.58 818.149 144.008 817.957 144.4C817.773 144.784 817.505 145.168 817.153 145.552C816.809 145.936 816.397 146.356 815.917 146.812L814.585 148.096V148.168H818.521V149.5ZM825.052 142.876C825.052 143.268 824.972 143.608 824.812 143.896C824.66 144.176 824.444 144.408 824.164 144.592C823.892 144.776 823.58 144.908 823.228 144.988V145.024C823.916 145.104 824.432 145.316 824.776 145.66C825.128 146.004 825.304 146.46 825.304 147.028C825.304 147.524 825.184 147.968 824.944 148.36C824.704 148.752 824.332 149.06 823.828 149.284C823.332 149.508 822.692 149.62 821.908 149.62C821.444 149.62 821.012 149.58 820.612 149.5C820.212 149.428 819.832 149.312 819.472 149.152V147.796C819.84 147.98 820.228 148.12 820.636 148.216C821.044 148.312 821.428 148.36 821.788 148.36C822.476 148.36 822.96 148.236 823.24 147.988C823.528 147.74 823.672 147.392 823.672 146.944C823.672 146.664 823.6 146.432 823.456 146.248C823.32 146.064 823.092 145.928 822.772 145.84C822.452 145.752 822.028 145.708 821.5 145.708H820.792V144.472H821.512C822.024 144.472 822.424 144.416 822.712 144.304C823 144.192 823.204 144.04 823.324 143.848C823.444 143.648 823.504 143.42 823.504 143.164C823.504 142.828 823.396 142.564 823.18 142.372C822.964 142.18 822.628 142.084 822.172 142.084C821.892 142.084 821.636 142.116 821.404 142.18C821.172 142.244 820.96 142.328 820.768 142.432C820.576 142.528 820.4 142.632 820.24 142.744L819.496 141.664C819.824 141.424 820.212 141.224 820.66 141.064C821.116 140.896 821.648 140.812 822.256 140.812C823.144 140.812 823.832 141 824.32 141.376C824.808 141.744 825.052 142.244 825.052 142.876ZM830.587 149.5H829.027V144.196C829.027 144.028 829.027 143.852 829.027 143.668C829.035 143.484 829.043 143.296 829.051 143.104C829.059 142.912 829.067 142.736 829.075 142.576C829.011 142.648 828.915 142.74 828.787 142.852C828.667 142.964 828.543 143.076 828.415 143.188L827.455 143.956L826.687 142.996L829.303 140.932H830.587V149.5Z" fill="#5A5A5A"/>
<path d="M261.108 221.681C261.108 221.681 271.566 209.937 270.353 187.944C269.414 170.915 256.278 184.687 256.278 184.687C256.278 184.687 255.482 172.432 247.023 175.35C238.564 178.268 236.188 191.781 236.188 191.781" fill="#0C0C0C"/>
<path d="M202.334 185.709C202.334 185.709 160.094 198.939 187.355 254.313L191.225 253.807L199.082 252.781" fill="#0C0C0C"/>
<path d="M262.424 312.047C262.23 312.021 260.083 347.648 218.692 344.543C190.037 342.396 179.82 311.997 179.164 311.997C182.253 311.34 187.456 310.385 188.828 309.653C193.34 307.228 198.922 304.706 200.377 295.945C201.215 290.894 199.793 265.06 200.231 259.95L244.216 269.766C243.601 280.557 239.3 305.574 254.377 310.001C256.885 310.734 259.589 311.407 262.424 312.047Z" fill="#EEAF96"/>
<path opacity="0.52" d="M244.832 299.778C244.143 297.558 243.7 295.268 243.51 292.951C243.026 287.665 243.122 282.341 243.797 277.075C234.857 275.868 226.434 272.179 219.487 266.425C218.67 269.441 214.178 282.62 215.422 285.487C217.773 290.905 228.82 299.778 244.832 299.778Z" fill="#0C0C0C"/>
<path d="M239.558 287.713C222.236 289.579 199.726 282.886 194.825 259.846L190.406 239.056C185.511 216.02 193.639 194.766 215.335 190.154C237.029 185.543 257.216 200.774 262.114 223.814L264.071 233.018C264.688 236.19 265.088 239.4 265.268 242.626C265.807 251.149 266.594 264.114 262.66 273.774C258.948 282.895 250.625 286.521 239.558 287.713Z" fill="#EEAF96"/>
<path d="M253.317 234.634C251.809 234.634 250.586 233.411 250.586 231.902C250.586 230.394 251.809 229.171 253.317 229.171C254.826 229.171 256.049 230.394 256.049 231.902C256.049 233.411 254.826 234.634 253.317 234.634Z" fill="#0C0C0C"/>
<path d="M227.373 237.365C225.864 237.365 224.641 236.142 224.641 234.634C224.641 233.125 225.864 231.902 227.373 231.902C228.881 231.902 230.104 233.125 230.104 234.634C230.104 236.142 228.881 237.365 227.373 237.365Z" fill="#0C0C0C"/>
<path d="M197.666 266.579C191.072 267.981 184.228 262.064 182.827 255.471C181.425 248.878 185.997 244.107 192.59 242.705L196.927 246.4L203.334 265.374L197.666 266.579Z" fill="#EEAF96"/>
<path d="M202.12 254.648C202.12 254.648 197.837 221.518 207.346 217.524C213.676 214.864 231.554 221.036 245.818 215.253C252.058 212.722 258.536 213.101 259.773 216.04C260.264 217.204 260.829 198.965 248.033 187.759C237.846 178.836 210.785 181.138 199.432 186.992C167.997 203.201 191.51 244.416 191.51 244.416L195.243 255.386L202.12 254.648Z" fill="#0C0C0C"/>
<g opacity="0.52">
<path d="M246.211 257.018L246.254 257.012C248.38 256.565 251.896 255.577 251.564 253.99C251.286 252.673 244.695 239.207 243.944 237.676C243.879 237.544 243.765 237.443 243.626 237.396C243.487 237.349 243.335 237.358 243.203 237.423C243.072 237.487 242.971 237.601 242.924 237.74C242.876 237.879 242.886 238.031 242.95 238.163C245.874 244.125 250.292 253.321 250.481 254.217C250.35 254.639 248.228 255.467 246.028 255.928C245.89 255.959 245.769 256.042 245.69 256.159C245.61 256.277 245.579 256.42 245.603 256.56C245.626 256.7 245.703 256.825 245.816 256.91C245.929 256.996 246.07 257.034 246.211 257.018Z" fill="#0C0C0C"/>
</g>
<path d="M246.701 223.357C248.79 222.304 251.124 221.832 253.458 221.993C254.605 222.065 255.735 222.309 256.81 222.716C257.873 223.114 258.881 223.645 259.811 224.296C259.967 224.395 260.077 224.551 260.119 224.731C260.16 224.91 260.129 225.099 260.032 225.256C259.936 225.413 259.781 225.526 259.602 225.57C259.423 225.614 259.234 225.586 259.075 225.491L259.026 225.464C258.173 224.935 257.257 224.515 256.3 224.215C255.356 223.913 254.372 223.756 253.381 223.75C251.422 223.721 249.491 224.21 247.782 225.168L247.718 225.206C247.599 225.278 247.466 225.324 247.328 225.344C247.19 225.364 247.05 225.356 246.915 225.322C246.78 225.287 246.654 225.226 246.542 225.142C246.431 225.059 246.338 224.954 246.267 224.834C246.197 224.713 246.151 224.581 246.132 224.443C246.113 224.305 246.122 224.164 246.157 224.03C246.193 223.895 246.255 223.769 246.339 223.658C246.424 223.548 246.529 223.455 246.65 223.385L246.701 223.357Z" fill="#0C0C0C"/>
<path d="M231.082 227.579C229.184 227.092 227.192 227.115 225.306 227.646C224.351 227.907 223.44 228.311 222.606 228.845C221.758 229.382 220.98 230.023 220.292 230.753L220.254 230.791C220.124 230.917 219.95 230.988 219.769 230.989C219.588 230.99 219.413 230.921 219.281 230.797C219.15 230.672 219.071 230.502 219.062 230.321C219.053 230.14 219.115 229.962 219.234 229.825C219.965 228.958 220.803 228.186 221.728 227.528C222.662 226.858 223.692 226.333 224.781 225.968C226.995 225.212 229.372 225.066 231.662 225.546C231.797 225.576 231.925 225.632 232.039 225.711C232.153 225.79 232.25 225.891 232.325 226.007C232.477 226.243 232.528 226.529 232.468 226.803C232.409 227.076 232.243 227.315 232.007 227.466C231.772 227.618 231.485 227.669 231.212 227.609L231.158 227.596L231.082 227.579Z" fill="#0C0C0C"/>
<path d="M249.554 262.129C243.401 263.667 236.911 263.11 231.11 260.546C230.909 260.459 230.687 260.43 230.471 260.464C230.254 260.498 230.051 260.592 229.886 260.737C229.722 260.881 229.601 261.07 229.539 261.28C229.478 261.491 229.477 261.714 229.537 261.925C230.617 265.529 233.656 271.967 241.528 271.434C246.612 271.091 249.532 266.613 250.896 263.74C250.99 263.541 251.025 263.319 250.998 263.101C250.97 262.882 250.88 262.676 250.739 262.506C250.598 262.337 250.412 262.211 250.202 262.145C249.991 262.078 249.767 262.073 249.554 262.129Z" fill="white"/>
<path d="M225.139 192.479C222.199 185.579 223.617 178.365 228.305 176.368C232.994 174.371 239.178 178.346 242.118 185.247C245.058 192.147 243.641 199.361 238.952 201.358C234.263 203.355 228.079 199.38 225.139 192.479Z" fill="#0C0C0C"/>
<path d="M529.394 199.699C529.664 199.09 530.055 198.543 530.543 198.09C531.032 197.637 531.607 197.289 532.234 197.066C532.862 196.843 533.528 196.75 534.193 196.793C534.857 196.836 535.506 197.014 536.099 197.317C537.228 197.941 538.077 198.97 538.475 200.197C538.874 201.423 538.791 202.756 538.245 203.924L535.563 209.975L552.793 194.761C554.679 193.037 558.097 192.126 559.893 194.369C560.639 195.187 561.086 196.234 561.161 197.339C561.236 198.444 560.934 199.541 560.304 200.452C560.327 200.467 560.348 200.484 560.367 200.503C560.377 200.519 560.386 200.535 560.395 200.552L563.304 197.892C563.839 197.403 564.477 197.038 565.17 196.825C565.864 196.612 566.596 196.555 567.314 196.659C568.032 196.763 568.718 197.025 569.323 197.425C569.928 197.826 570.436 198.356 570.811 198.977C571.389 199.981 571.602 201.153 571.414 202.295C571.227 203.437 570.65 204.48 569.782 205.246L568.544 206.377C568.561 206.43 568.568 206.485 568.565 206.54C569.568 205.974 570.739 205.78 571.871 205.991C573.004 206.203 574.025 206.806 574.757 207.696C575.54 208.721 575.904 210.005 575.777 211.288C575.649 212.571 575.039 213.758 574.07 214.609L571.028 217.391C571.1 217.382 571.172 217.39 571.24 217.414C571.307 217.439 571.368 217.479 571.417 217.532C571.472 217.598 571.507 217.678 571.518 217.763C572.533 217.512 573.603 217.592 574.569 217.993C575.536 218.393 576.349 219.092 576.889 219.988C577.467 220.991 577.68 222.163 577.492 223.306C577.305 224.448 576.728 225.49 575.86 226.257L549.925 249.98C546.296 253.298 541.759 255.457 536.895 256.18C532.031 256.904 527.062 256.158 522.625 254.039L508.339 247.216L529.394 199.699Z" fill="#EEAF96"/>
<g opacity="0.2">
<path d="M543.329 215.599C543.41 215.686 543.521 215.738 543.639 215.744C543.758 215.75 543.874 215.709 543.962 215.63L560.329 201.141C560.373 201.102 560.409 201.054 560.435 201.001C560.462 200.948 560.477 200.889 560.48 200.83C560.484 200.771 560.476 200.711 560.457 200.655C560.437 200.599 560.407 200.547 560.368 200.503C560.328 200.458 560.28 200.422 560.227 200.396C560.174 200.37 560.116 200.355 560.056 200.351C559.997 200.348 559.938 200.356 559.881 200.375C559.825 200.394 559.773 200.425 559.729 200.464L543.357 214.953C543.313 214.993 543.277 215.041 543.251 215.094C543.225 215.147 543.209 215.206 543.206 215.265C543.202 215.324 543.211 215.384 543.23 215.44C543.25 215.496 543.28 215.548 543.319 215.592L543.329 215.599Z" fill="#0C0C0C"/>
</g>
<g opacity="0.2">
<path d="M549.522 222.993C549.602 223.08 549.713 223.133 549.832 223.138C549.95 223.144 550.066 223.104 550.155 223.025L568.42 206.854C568.464 206.815 568.5 206.767 568.526 206.713C568.552 206.66 568.568 206.602 568.571 206.543C568.575 206.483 568.567 206.424 568.547 206.368C568.528 206.312 568.498 206.26 568.458 206.215C568.377 206.129 568.265 206.077 568.147 206.07C568.028 206.063 567.911 206.101 567.82 206.177L549.554 222.347C549.51 222.387 549.473 222.435 549.447 222.488C549.421 222.541 549.406 222.599 549.403 222.659C549.399 222.718 549.407 222.777 549.427 222.834C549.446 222.89 549.477 222.941 549.516 222.986L549.522 222.993Z" fill="#0C0C0C"/>
</g>
<g opacity="0.2">
<path d="M556.181 231.04C556.261 231.128 556.372 231.18 556.491 231.186C556.609 231.192 556.725 231.151 556.814 231.072L571.385 218.173C571.474 218.094 571.529 217.982 571.536 217.862C571.543 217.742 571.503 217.624 571.423 217.534C571.343 217.445 571.231 217.39 571.111 217.383C570.992 217.376 570.874 217.416 570.784 217.496L556.214 230.395C556.17 230.434 556.133 230.482 556.107 230.535C556.081 230.588 556.066 230.646 556.062 230.706C556.059 230.765 556.067 230.824 556.086 230.881C556.106 230.937 556.136 230.989 556.175 231.033L556.181 231.04Z" fill="#0C0C0C"/>
</g>
<ellipse cx="569.5" cy="199" rx="24.5" ry="15" fill="white"/>
<path fill-rule="evenodd" clip-rule="evenodd" d="M576.256 169.65L579.809 173.786L585.157 172.927C589.726 172.194 593.878 175.72 593.96 180.397L594.053 185.875L598.694 188.697C602.661 191.104 603.602 196.507 600.691 200.145L597.281 204.4L599.047 209.582C600.552 214.003 597.841 218.755 593.3 219.647L587.985 220.69L586.045 225.808C584.389 230.174 579.296 232.051 575.251 229.781L570.513 227.125L565.776 229.781C561.731 232.051 556.637 230.174 554.982 225.808L553.042 220.69L547.727 219.647C543.186 218.756 540.475 214.003 541.98 209.582L543.746 204.4L543.754 201.236L543.746 199.662L542.967 198.088C540.056 194.45 538.366 191.105 542.333 188.697L546.974 185.875L547.067 180.397C547.149 175.72 551.301 172.194 555.867 172.927L561.218 173.786L564.771 169.65C567.803 166.117 573.224 166.117 576.256 169.65ZM584.443 194.276C585.727 192.869 585.642 190.678 584.25 189.379C582.863 188.083 580.694 188.17 579.413 189.577L567.734 202.375L561.474 196.272C560.111 194.948 557.943 194.987 556.63 196.366C555.321 197.745 555.36 199.939 556.723 201.267L565.505 209.82C566.168 210.466 567.06 210.812 567.981 210.787C568.901 210.758 569.771 210.357 570.395 209.675L584.443 194.276Z" fill="#277EB8"/>
<path d="M508.153 218.879L416.456 299.612L289.524 311.919C281.384 312.652 273.822 316.738 268.419 323.322C263.016 329.907 260.189 338.481 260.528 347.253C260.868 356.025 264.349 364.316 270.243 370.395C276.137 376.474 283.988 379.869 292.157 379.873C293.052 379.873 293.953 379.831 294.859 379.749L431.755 366.536C438.24 365.946 444.397 363.224 449.391 358.739L545.424 267.171L508.153 218.879Z" fill="#277EB8"/>
<defs>
<filter id="filter0_f_667_2595" x="761.948" y="114.38" width="73.8508" height="18.9602" filterUnits="userSpaceOnUse" color-interpolation-filters="sRGB">
<feFlood flood-opacity="0" result="BackgroundImageFix"/>
<feBlend mode="normal" in="SourceGraphic" in2="BackgroundImageFix" result="shape"/>
<feGaussianBlur stdDeviation="1.5" result="effect1_foregroundBlur_667_2595"/>
</filter>
</defs>
</svg>
