<svg width="1024" height="1366" viewBox="0 0 1024 1366" fill="none" xmlns="http://www.w3.org/2000/svg">
<g opacity="0.09" clip-path="url(#clip0_667_2254)">
<path d="M-79.1735 20.9221L-74.5778 -679.996L524.398 -333.525L-79.1735 20.9221Z" fill="#277EB8"/>
<path d="M505.147 360.425L509.742 -340.493L1108.72 5.97863L505.147 360.425Z" fill="#277EB8"/>
<path d="M1094.43 699.928L1099.03 -0.989941L1698 345.482L1094.43 699.928Z" fill="#277EB8"/>
<path d="M1082.38 688.617L1697.97 1021.69L1111.46 1388.95L1082.38 688.617Z" fill="#277EB8"/>
<path d="M1110.2 1377.76L500.551 1033.92L1093.4 677.028L1110.2 1377.76Z" fill="#66A7D2"/>
<path d="M1107.14 1345.08L1102.54 2046L503.568 1699.52L1107.14 1345.08Z" fill="#78B07E"/>
<path d="M522.819 1010.55L518.223 1711.47L-80.7523 1365L522.819 1010.55Z" fill="#78B07E"/>
<path d="M-61.496 676.026L-66.0917 1376.94L-665.067 1030.47L-61.496 676.026Z" fill="#78B07E"/>
<path d="M-79.1737 1380.46L-74.578 679.543L524.397 1026.01L-79.1737 1380.46Z" fill="#9FC6A3"/>
<path d="M505.146 1714.99L509.742 1014.07L1108.72 1360.54L505.146 1714.99Z" fill="#9FC6A3"/>
<path d="M-61.496 2.71012L-66.0917 703.628L-665.067 357.157L-61.496 2.71012Z" fill="#78B07E"/>
<path d="M516.382 -343.767L511.787 357.152L-87.1888 10.6801L516.382 -343.767Z" fill="#66A7D2"/>
<path d="M1103.1 2.71012L1098.5 703.628L499.524 357.157L1103.1 2.71012Z" fill="#66A7D2"/>
<path d="M-91.0995 707.607L-86.5038 6.68889L512.472 353.16L-91.0995 707.607Z" fill="#9FC6A3"/>
</g>
<defs>
<clipPath id="clip0_667_2254">
<rect width="2373" height="2726" fill="white" transform="translate(-675 -680)"/>
</clipPath>
</defs>
</svg>
